<svg xmlns="http://www.w3.org/2000/svg" viewBox="0 0 48 48"><g id="Layer_2" data-name="Layer 2"><g id="layer_1-2" data-name="layer 1"><path class="cls-1" d="M36,43a4,4,0,0,1-4-4h2a2,2,0,1,0,2-2,4,4,0,1,1,4-4H38a2,2,0,1,0-2,2,4,4,0,0,1,0,8Z"/><rect class="cls-1" x="35" y="27" width="2" height="3"/><rect class="cls-1" x="35" y="42" width="2" height="3"/><rect class="cls-1" x="42" y="35" width="2" height="2"/><rect class="cls-1" x="28" y="35" width="2" height="2"/><path class="cls-1" d="M36,48A12,12,0,0,1,24,36V20a1,1,0,0,1,.64-.93,1,1,0,0,1,1.1.25L31,25.08A12,12,0,1,1,36,48ZM26,22.57V36a10,10,0,1,0,5.26-8.81,1,1,0,0,1-1.21-.2Z"/><path class="cls-1" d="M21,42A21,21,0,1,1,41.36,26.16l-1.94-.49A18.79,18.79,0,0,0,40,21,19,19,0,1,0,21,40a18.79,18.79,0,0,0,4.67-.58l.49,1.94A20.84,20.84,0,0,1,21,42Z"/><path class="cls-1" d="M21,31A10,10,0,1,1,31,21H29a8,8,0,1,0-8,8,7.88,7.88,0,0,0,3.55-.83l.9,1.79A9.93,9.93,0,0,1,21,31Z"/><rect class="cls-1" x="20" y="1" width="2" height="11"/><rect class="cls-1" x="28.44" y="13.48" width="11" height="2" transform="translate(-2.88 16.84) rotate(-26.77)"/><rect class="cls-1" x="7.53" y="32.11" width="11.03" height="2" transform="translate(-21.79 25.84) rotate(-56.71)"/></g></g></svg>