<?xml version="1.0"?>
<svg viewBox="0 0 400 380" xmlns="http://www.w3.org/2000/svg" xmlns:svg="http://www.w3.org/2000/svg">
 <g class="layer">
  <title>Layer 1</title>
  <g id="svgg">
   <path d="m194.73,9.44c-4.25,2.86 -5.06,15.29 -1.24,19.1c2.76,2.76 6.99,2.76 9.46,0c2.05,-2.3 2.62,-14.78 0.78,-17.4c-2.14,-3.06 -5.92,-3.77 -9,-1.7m-152.7,26.48c-2.83,1.18 -4.56,3.94 -5.01,8c-0.96,8.56 -0.58,60.95 0.45,63.12c1.78,3.75 1.23,3.68 32.36,3.68l28.14,0l0,14.21l0,14.2l-44.67,0c-37.65,0 -44.91,0.13 -46.27,0.83c-4.62,2.39 -5.1,8.55 -0.94,11.83l1.6,1.25l49.75,0c36.36,0 50.15,-0.18 51.22,-0.67c3.44,-1.56 3.5,-1.92 3.7,-22.7l0.18,-19.03l19.34,0.14c27.16,0.19 24.17,4.75 24.27,-37.01l0.08,-32.32l-1.31,-2.12c-2.59,-4.16 0.25,-3.97 -58.84,-3.93c-29.09,0.02 -53.41,0.25 -54.05,0.52m204.2,0.27c-2.69,0.96 -3.75,1.81 -4.82,3.88c-1.12,2.17 -1.25,65.05 -0.14,67.48c1.39,3.06 2.24,3.17 23.34,3.17l19.45,0l0,18.58c0,20.07 0.1,20.8 3.14,22.79c1.86,1.22 102.01,1.49 104.29,0.28c4.35,-2.31 5.08,-7.83 1.49,-11.27l-1.75,-1.68l-46.64,-0.16l-46.64,-0.15l0.16,-14.05l0.15,-14.05l7.54,-0.29l7.53,-0.28l0.17,-6.52l0.16,-6.52l-29.44,-0.15l-29.44,-0.15l-0.15,-23.62l-0.15,-23.63l34.96,0l34.96,0l0.72,2.71c2.78,10.39 10.13,17.97 20.39,21.05l3.19,0.95l0.15,10.94c0.19,13.04 1.17,11.87 -9.86,11.88l-8.55,0.01l0,6.67l0,6.66l2.17,0.06c24.88,0.68 26.96,0.46 29.12,-3.07c1.15,-1.87 1.18,-2.63 1.03,-34.77l-0.15,-32.86l-1.71,-1.78c-0.94,-0.98 -2.63,-2.04 -3.77,-2.36c-3.43,-0.95 -108.19,-0.72 -110.9,0.25m-51.26,9.96c-4.88,2.41 -5.32,17.66 -0.59,20.54c2.96,1.81 5.95,1.51 8.29,-0.83l1.97,-1.98l0,-7.17c0,-10.08 -3.31,-13.69 -9.67,-10.56m-133.29,3.47c1.81,0.7 -2.29,6.72 -6.47,9.49c-3.94,2.61 -4.03,2.52 -4.15,-3.72l-0.1,-5.47l3.07,-0.22c5.98,-0.41 6.75,-0.42 7.65,-0.08m80.35,5.36c0,6.66 -0.06,6.76 -2.88,5.32c-3.98,-2.03 -9.43,-8.81 -8.41,-10.46c0.19,-0.31 2.81,-0.57 5.82,-0.57l5.47,0l0,5.71m-24.64,-2.84c1.58,9.37 10.18,18.58 20.14,21.58l4.49,1.35l0,11.16l0.01,11.16l-45.51,0l-45.51,0l0,-11.24l0,-11.24l2.18,-0.4c9.19,-1.7 19.15,-11.64 21.63,-21.61l0.76,-3.05l20.71,0l20.71,0l0.39,2.29m231.6,3.22c0,3.03 -0.15,5.51 -0.34,5.51c-2.23,0 -7.59,-4.92 -9.56,-8.77l-1.14,-2.25l5.52,0l5.52,0l0,5.51m-82.03,3.89c-3.06,1.75 -3.58,5.71 -1.08,8.21l1.52,1.53l14.06,0c12.54,0 14.2,-0.11 15.29,-1.02c2.84,-2.33 2.35,-7.64 -0.82,-8.84c-2.18,-0.83 -27.5,-0.72 -28.97,0.12m43.48,0c-3.36,1.93 -3.55,7.11 -0.34,9.57c2.98,2.29 8.22,-0.67 8.33,-4.71c0.11,-3.98 -4.57,-6.82 -7.99,-4.86m-215.65,2.92c-0.14,0.4 -0.32,1.49 -0.42,2.41c-0.14,1.46 -0.53,1.79 -2.88,2.47c-8.62,2.5 -6.16,10.41 3.67,11.8c2.33,0.33 4.47,0.83 4.75,1.12c1.67,1.67 -3.91,3.44 -6.54,2.08c-3.67,-1.9 -7.83,-0.64 -6.44,1.96c0.88,1.65 2.46,2.37 5.21,2.37c2.18,0 2.35,0.12 2.36,1.59c0.02,3.78 2.99,3.98 3.36,0.23c0.16,-1.57 0.41,-1.82 1.8,-1.82c7.51,0 5.88,-10.27 -1.78,-11.25c-6.53,-0.83 -7.74,-1.64 -5.52,-3.72c1.59,-1.5 2.44,-1.56 5.31,-0.36c4.43,1.85 7.85,-0.28 4.76,-2.97c-0.89,-0.78 -2.26,-1.41 -3.04,-1.41c-1.18,0 -1.42,-0.29 -1.42,-1.7c0,-3.07 -2.37,-5.16 -3.18,-2.8m216.06,16.39c-5.62,2.44 -3.69,10.72 2.49,10.72c5.26,0 7.11,-7.26 2.62,-10.29c-2.24,-1.52 -2.56,-1.55 -5.11,-0.43m-43.89,0.4c-2.93,1.68 -3.56,5.7 -1.31,8.25l1.31,1.47l14.47,0.06l14.48,0.07l1.32,-1.54c1.92,-2.24 1.77,-5.17 -0.37,-7.32l-1.7,-1.69l-13.52,0.02c-9.08,0.01 -13.9,0.24 -14.68,0.68m62.58,0.84c-2.26,2.43 -2.12,5.59 0.35,7.88c4.57,4.24 11.6,-0.57 8.96,-6.13c-1.69,-3.57 -6.75,-4.52 -9.31,-1.75m-134.89,3.43c-3.25,1.76 -3.35,2.44 -3.35,23.99c0,10.85 -0.11,19.74 -0.24,19.74c-24.8,0 -53.81,24.82 -60.45,51.74l-1.54,6.23l-15.49,0l-15.5,0l-1.87,-3.72c-10.25,-20.41 -39.69,-13.35 -39.69,9.51c0,22 29.02,29.53 39.41,10.24l1.15,-2.12l16.09,0l16.11,0l0,2.27c0,15.86 12.08,37.76 26.95,48.86c9.31,6.94 25.02,13.19 33.19,13.21l1.88,0.01l0,30.14c0,26.9 -0.09,30.15 -0.9,30.15c-4.21,0 -13.55,7.72 -16.41,13.57c-11.33,23.18 13.39,47.59 36.58,36.13c20.62,-10.19 18.92,-41.54 -2.66,-48.89l-2.69,-0.92l0,-29.96l0,-29.97l4.86,-0.66c29.71,-4.05 57.17,-33.73 57.17,-61.79c0,-2.73 -0.13,-2.71 18.66,-2.72l16.06,-0.01l2.11,3.19c11.27,16.96 35.65,12.34 39.18,-7.42c4.35,-24.36 -29.06,-34.43 -40.3,-12.15l-1.53,3.05l-17.24,0l-17.23,0l-1.52,-6.3c-6.47,-26.81 -30.13,-48.1 -56.74,-51.03l-3.19,-0.35l-0.29,-20c-0.32,-21.72 -0.32,-21.77 -3.66,-23.8c-2.19,-1.33 -4.72,-1.42 -6.91,-0.22m13.14,57.94c43.69,7.62 60.94,60.8 29.94,92.29c-29.97,30.43 -82.97,16.16 -93.38,-25.16c-9.56,-37.92 24.47,-73.93 63.44,-67.13m-11.73,10.79c-2.61,0.75 -4.17,3.46 -4.17,7.24l-0.01,2.96l-3.47,1.27c-10.22,3.73 -15.71,15.07 -11.68,24.11c2.79,6.23 7.34,9.23 19.41,12.78c10.08,2.96 13.2,5.31 12.23,9.19c-1.36,5.42 -9.89,6.99 -20.33,3.75c-7.73,-2.4 -11.81,-0.82 -11.81,4.58c0.01,4.77 3.28,7.37 11.31,8.97l4.05,0.82l0.29,3.81c0.83,10.78 13.33,9.16 13.34,-1.73c0,-2.28 0.21,-3.04 0.84,-3.04c7.93,0 15.97,-9.5 15.96,-18.84c-0.01,-10.38 -4.89,-15.09 -20.21,-19.51c-11.04,-3.19 -14.21,-5.98 -11.9,-10.46c2.17,-4.2 7.19,-4.94 16.81,-2.5c10.81,2.74 16.53,-0.61 12.59,-7.37c-1.7,-2.91 -4.42,-4.2 -12.5,-5.93c-1.43,-0.31 -1.59,-0.59 -1.59,-2.8c-0.01,-3.15 -1.77,-6.05 -4.34,-7.12c-2.25,-0.94 -2.2,-0.94 -4.82,-0.18m-180.57,24.3c-11.67,2.89 -14.79,17.89 -5.24,25.18c8.08,6.17 19.67,2.22 22.57,-7.69c2.97,-10.13 -6.89,-20.08 -17.33,-17.49m361.9,-0.07c-7.06,1.44 -12.45,8.94 -11.35,15.79c1.82,11.4 16.09,16.48 24.01,8.56c10.16,-10.16 1.3,-27.21 -12.66,-24.35m-370.21,52.2c-4.97,2.01 -4.98,10.63 -0.02,12.98c1.8,0.85 6.51,0.95 46.41,0.95l44.4,0l0,14.49c0,13.39 -0.08,14.5 -1.01,14.57c-0.56,0.05 -13.16,0.12 -28,0.15c-29.68,0.07 -28.69,-0.04 -31.13,3.67c-1.59,2.43 -1.57,66.33 0.03,68.77c2.7,4.12 -1.38,3.85 58.59,3.85c60.74,0.01 56.36,0.34 58.64,-4.47c1.57,-3.3 1.67,-64.97 0.11,-67.83c-2.05,-3.77 -2.62,-3.86 -23.68,-3.7l-18.92,0.15l-0.23,-19.61c-0.26,-21.59 -0.29,-21.76 -4.02,-23.69c-1.85,-0.96 -98.82,-1.22 -101.17,-0.28m281.23,0.25c-4.26,1.88 -4.04,0.33 -4.22,29.97l-0.17,26.61l14.51,0l14.51,0l0,-7l0,-7l-6.81,0.09c-3.74,0.05 -7.15,0.07 -7.57,0.04c-0.61,-0.04 -0.74,-2.93 -0.64,-14.54l0.11,-14.49l46.04,0c50.83,0 48.41,0.18 50.25,-3.69c1.78,-3.77 0.72,-7.58 -2.71,-9.67c-2.39,-1.46 -100.04,-1.76 -103.3,-0.32m-41.53,43.25c-6.49,0.78 -6.3,-0.32 -6.3,37.38c0,34.89 -0.1,33.75 3.18,36.82l1.55,1.45l55.91,0.15c61.8,0.17 58.17,0.38 60.54,-3.51c1.87,-3.07 1.76,-67.29 -0.12,-69.68c-2.4,-3.06 -14.98,-4.27 -28.74,-2.76l-2.46,0.27l0,6.6l0,6.61l9.27,0l9.28,0l0,11.16l0,11.16l-3.92,1.35c-9.92,3.43 -17.73,11.94 -19.88,21.69l-0.74,3.33l-34.64,0l-34.64,0l-0.37,-4.2c-0.2,-2.31 -0.29,-13.2 -0.19,-24.2l0.17,-20l6.23,-0.17l6.24,-0.16l0,-6.98l0,-6.98l-8.84,0.17c-4.87,0.09 -10.05,0.32 -11.53,0.5m-104.98,24.71l-0.16,11.39l-3.13,0.8c-9.73,2.48 -18.66,11.84 -21.07,22.08l-0.71,3.04l-20.6,0l-20.59,0l-0.72,-3.04c-2.45,-10.5 -9.84,-18.46 -20.72,-22.34l-2.9,-1.03l-0.15,-10.4c-0.09,-5.72 -0.03,-10.73 0.12,-11.14c0.23,-0.59 9.24,-0.74 45.54,-0.74l45.24,0l-0.15,11.38m125.55,-2.11c-3.93,1.59 -4.06,7.2 -0.21,9.47c1.47,0.87 4.94,0.97 35.36,0.97l33.72,0l1.7,-1.7c1.25,-1.25 1.69,-2.24 1.69,-3.81c0,-1.57 -0.44,-2.56 -1.69,-3.81l-1.7,-1.7l-33.81,0.04c-18.6,0.02 -34.37,0.26 -35.06,0.54m-172.26,0.73c-0.33,0.4 -0.68,1.5 -0.79,2.45c-0.17,1.48 -0.5,1.79 -2.23,2.07c-8.82,1.46 -7.25,10.59 2.04,11.84c3.22,0.43 6.08,1.38 6.08,2.02c0,2.17 -5.07,3.02 -8.46,1.41c-1.11,-0.53 -2.57,-0.78 -3.36,-0.59c-3.6,0.91 -1.35,4.75 3.12,5.34c2.77,0.37 2.85,0.44 3.02,2.49c0.28,3.41 3.36,3.51 3.36,0.11c0,-2 0.19,-2.36 1.2,-2.36c3.03,0 5.72,-2.75 5.75,-5.86c0.02,-3.97 -3.31,-6.3 -9.01,-6.31c-3.15,-0.01 -4.89,-1.22 -3.74,-2.61c1.61,-1.93 3.41,-2.15 6.2,-0.76c2.39,1.2 2.7,1.23 4.14,0.41c2.69,-1.54 1.38,-4.36 -2.29,-4.95c-2.06,-0.33 -2.25,-0.51 -2.25,-2.2c0,-2.64 -1.52,-4.02 -2.78,-2.5m171.77,19.64c-2.59,1.45 -3.38,4.35 -1.94,7.06c1.39,2.61 1.83,2.68 16.6,2.7l14.08,0.02l1.43,-1.43c1.79,-1.78 1.94,-5.34 0.31,-7.35c-1.27,-1.57 -27.9,-2.45 -30.48,-1m42.29,0.77c-1.94,1.93 -1.96,5.43 -0.04,7.66c3.21,3.73 9.05,1.19 9.05,-3.93c0,-3.2 -1.98,-5.16 -5.22,-5.16c-1.74,0 -2.74,0.38 -3.79,1.43m39.74,12.2l0,6.08l-5.55,0c-6.19,0 -6.28,-0.1 -3.7,-4.35c1.62,-2.65 7.3,-7.68 8.81,-7.79c0.24,-0.02 0.44,2.71 0.44,6.06m-293.82,-4c2.98,2.07 6.86,7.42 6.86,9.48c0,0.38 -2.05,0.6 -5.51,0.6l-5.51,0l0,-5.79c0,-6.63 0.31,-6.95 4.16,-4.29m86.86,4.29l0,5.79l-5.84,0c-5.78,0 -5.83,-0.01 -5.44,-1.3c1.48,-4.97 6.78,-10.28 10.26,-10.29c0.9,0 1.02,0.66 1.02,5.8m60.47,8.73c8.76,2.44 12.07,14.93 5.73,21.61c-4.81,5.07 -14.36,5.31 -19.44,0.49c-10.11,-9.59 0.01,-25.9 13.71,-22.1" fill="#000000" fill-rule="evenodd" id="path0"/>
  </g>
 </g>
</svg>